<?xml version="1.0" encoding="utf-8"?>
<!-- Generator: Adobe Illustrator 21.1.0, SVG Export Plug-In . SVG Version: 6.00 Build 0)  -->
<svg version="1.1" id="Layer_1" xmlns="http://www.w3.org/2000/svg" xmlns:xlink="http://www.w3.org/1999/xlink" x="0px" y="0px"
	 viewBox="0 0 841.9 595.3" style="enable-background:new 0 0 841.9 595.3;" xml:space="preserve">
<style type="text/css">
	.st0{fill:#213519;}
</style>
<g>
	<path class="st0" d="M143.6,455.6c2.3-3,5.1-5.3,8.5-7c3.3-1.6,7.1-2.4,11.2-2.4c0.7,0,1.6,0.1,2.4,0.2c0.9,0.1,1.7,0.3,2.5,0.5
		c0.8,0.2,1.5,0.4,2.2,0.6c0.7,0.2,1.1,0.4,1.4,0.6c0.4,0.2,0.8,0.5,1.1,1c0.3,0.4,0.5,0.8,0.5,1l2.7,11.5h9.5V443
		c-2.8-0.9-5.3-1.7-7.5-2.3c-2.1-0.6-4.2-1.1-6.1-1.6c-1.9-0.4-3.8-0.7-5.7-0.9c-1.9-0.2-4-0.3-6.3-0.3c-6,0-11.6,1-16.8,3.1
		c-5.2,2.1-9.7,5-13.5,8.7c-3.8,3.7-6.8,8.2-9,13.4c-2.2,5.2-3.3,10.9-3.3,17.3c0,4.1,0.5,8.1,1.4,11.8c0.9,3.7,2.3,7.2,4.1,10.3
		c1.8,3.2,3.9,6,6.4,8.5c2.5,2.5,5.4,4.7,8.5,6.4c3.1,1.8,6.6,3.1,10.3,4.1c3.7,0.9,7.6,1.4,11.8,1.4c3.1,0,6-0.2,8.8-0.6
		c2.8-0.4,5.3-0.9,7.5-1.4c2.2-0.5,4.2-1.1,5.8-1.6c1.6-0.5,2.8-0.9,3.5-1.3V499H176l-2.7,12.3c-0.1,0.4-0.4,0.8-0.9,1.3
		c-0.5,0.5-0.9,0.9-1.2,1c-0.7,0.3-1.6,0.7-2.9,1c-1.3,0.4-2.6,0.6-4.1,0.6c-3.4,0-6.4-0.5-9.1-1.4c-2.7-0.9-5.1-2.2-7.1-3.8
		c-2-1.6-3.8-3.5-5.3-5.7c-1.5-2.2-2.7-4.6-3.6-7.1c-0.9-2.6-1.6-5.2-2-8c-0.4-2.8-0.7-5.6-0.7-8.4c0-5.2,0.6-10,1.9-14.2
		C139.5,462.2,141.3,458.6,143.6,455.6z"/>
	<path class="st0" d="M201.3,514.2c-0.5,0.5-1.1,0.8-1.9,0.9l-6,0.4v5.7h33.4v-5.7l-6.1-0.4c-0.8-0.1-1.4-0.4-1.9-0.9
		c-0.5-0.5-0.7-1.2-0.7-1.9v-80.7h-6.1l-18.6,6.1v5h8.6v69.6C202,513,201.8,513.6,201.3,514.2z"/>
	<path class="st0" d="M241.5,514.1c-0.5,0.5-1.2,0.8-1.9,0.9l-5.6,0.4v5.7H267v-5.7l-5.9-0.4c-0.7-0.1-1.3-0.4-1.9-0.9
		c-0.6-0.5-0.8-1.2-0.8-1.9v-51.6h-6.1l-17.7,6v5h7.7v40.6C242.3,513,242,513.6,241.5,514.1z"/>
	<path class="st0" d="M247,449.6c1.2,0.5,2.4,0.7,3.7,0.7c1.3,0,2.5-0.2,3.7-0.7c1.1-0.5,2.1-1.2,3-2c0.9-0.9,1.5-1.9,2-3
		c0.5-1.1,0.7-2.4,0.7-3.7c0-1.3-0.3-2.5-0.7-3.7c-0.5-1.1-1.2-2.1-2-3c-0.9-0.8-1.9-1.5-3-2c-1.1-0.5-2.4-0.8-3.7-0.8
		c-1.3,0-2.5,0.3-3.7,0.8c-1.1,0.5-2.1,1.1-2.9,2c-0.8,0.8-1.5,1.8-2,3c-0.5,1.1-0.7,2.4-0.7,3.7c0,1.3,0.2,2.5,0.7,3.7
		c0.5,1.1,1.2,2.1,2,3C244.8,448.4,245.8,449.1,247,449.6z"/>
	<path class="st0" d="M326.2,514.3c0.5,1.9,1.3,3.4,2.5,4.6c1.2,1.2,2.7,2.2,4.6,2.7c1.9,0.6,4.1,0.9,6.8,0.9c2.5,0,4.9-0.2,7.2-0.6
		c2.3-0.4,4.4-0.9,6.2-1.4c2.1-0.6,4.1-1.3,6-2.1v-6c-0.8,0.2-1.6,0.3-2.5,0.4c-0.7,0.1-1.6,0.2-2.5,0.3c-0.9,0.1-1.9,0.1-2.8,0.1
		c-3.2,0-5.7-0.8-7.4-2.4c-1.7-1.6-2.5-4.3-2.5-8.2v-30.9h16.8v-7.8h-16.8v-17.6h-8.4l-6.5,12.9l-6.8,4.1H300v-7
		c0-2.8,0.1-5.1,0.3-7c0.2-1.9,0.4-3.6,0.7-5c0.3-1.4,0.7-2.6,1.2-3.6c0.5-1,1-2,1.6-2.9l12,11.2c1-0.3,1.9-0.7,2.8-1.2
		c0.9-0.5,1.7-1.1,2.4-1.8c0.7-0.7,1.2-1.4,1.7-2.3c0.4-0.8,0.6-1.7,0.6-2.7c0-1.7-0.4-3.2-1.1-4.4c-0.7-1.2-1.7-2.3-2.9-3
		c-1.2-0.8-2.4-1.3-3.8-1.7c-1.3-0.4-2.6-0.6-3.8-0.6c-2.5,0-4.8,0.3-7.1,1c-2.2,0.7-4.3,1.6-6.2,2.8c-1.9,1.2-3.7,2.7-5.3,4.3
		c-1.6,1.7-3,3.5-4.2,5.4c-1.7,2.7-3,5.4-3.9,8.3c-0.9,2.8-1.3,5.9-1.3,9l-7.7,4v4.8h7.9v41c0,0.7-0.3,1.4-0.8,1.9
		c-0.5,0.5-1.2,0.8-1.9,0.9l-6.1,0.4v5.7h35.1v-5.7l-7.4-0.4c-0.8,0-1.4-0.3-1.9-0.8c-0.5-0.6-0.7-1.2-0.7-2v-41h25.3v36.4
		C325.4,510.2,325.6,512.4,326.2,514.3z"/>
	<path class="st0" d="M406.9,462.9c-3.9-1.5-8.3-2.3-13.3-2.3c-4.7,0-9,0.7-12.9,2.1c-3.9,1.4-7.3,3.4-10.1,6.1
		c-2.8,2.7-5,5.9-6.6,9.8c-1.6,3.9-2.4,8.3-2.4,13.2c0,4.8,0.8,9.1,2.3,12.9c1.5,3.8,3.6,7,6.4,9.6c2.7,2.6,6,4.7,9.8,6.1
		c3.8,1.4,8,2.1,12.6,2.1c5,0,9.5-0.8,13.4-2.3c4-1.5,7.3-3.6,10.1-6.3c2.8-2.7,4.9-5.9,6.3-9.7c1.4-3.8,2.2-7.9,2.2-12.4
		c0-4.6-0.7-8.8-2.1-12.6c-1.4-3.8-3.4-7.1-6-9.9S410.8,464.4,406.9,462.9z M406.1,500.1c-0.4,2.8-1.1,5.4-2,7.7
		c-1,2.3-2.3,4.2-4.1,5.7c-1.7,1.5-4,2.2-6.7,2.2c-1.9,0-3.5-0.4-4.9-1.1c-1.4-0.7-2.6-1.7-3.6-3c-1-1.2-1.8-2.7-2.4-4.3
		c-0.6-1.6-1.1-3.3-1.5-5.1c-0.4-1.8-0.6-3.7-0.8-5.6c-0.1-1.9-0.2-3.7-0.2-5.4c0-2.6,0.2-5.3,0.6-8.1c0.4-2.8,1-5.4,2-7.7
		c1-2.3,2.3-4.3,4.1-5.8c1.7-1.5,3.9-2.2,6.7-2.2c1.9,0,3.5,0.4,4.8,1.1c1.4,0.7,2.6,1.7,3.6,2.9c1,1.2,1.8,2.6,2.5,4.3
		c0.7,1.6,1.2,3.3,1.6,5.1c0.4,1.8,0.6,3.6,0.8,5.5c0.2,1.9,0.2,3.7,0.2,5.4C406.7,494.5,406.5,497.3,406.1,500.1z"/>
	<path class="st0" d="M474.3,514.1c-0.5,0.5-1.1,0.8-1.9,0.9l-4.5,0.4v5.7h29.7v-5.7l-3.7-0.4c-0.7-0.1-1.4-0.4-2-0.9
		c-0.5-0.5-0.8-1.2-0.8-1.9v-30.6c0-2.6-0.2-5.2-0.6-7.7c-0.4-2.5-1.2-4.8-2.4-6.7c-1.2-2-2.9-3.6-5-4.8c-2.2-1.2-5-1.8-8.4-1.8
		c-2.6,0-5.2,0.4-7.7,1.2c-2.5,0.8-4.8,1.6-6.8,2.5c-2.4,1.1-4.6,2.3-6.7,3.7l0-7.4h-6.3l-18.2,6.1v5h8.3v40.5
		c0,0.7-0.3,1.4-0.8,1.9c-0.5,0.5-1.1,0.8-1.9,0.9l-4.3,0.4v5.7h29.6v-5.7l-3.6-0.4c-0.7-0.1-1.4-0.4-1.9-0.9
		c-0.6-0.5-0.8-1.2-0.8-1.9v-38.9c1-0.3,2.1-0.5,3.3-0.8c1-0.2,2.3-0.4,3.7-0.5c1.4-0.2,2.9-0.3,4.6-0.3c1.8,0,3.4,0.3,4.6,1
		c1.3,0.7,2.3,1.6,3.1,2.7c0.8,1.1,1.4,2.4,1.7,3.9c0.4,1.5,0.5,2.9,0.5,4.5v28.4C475.1,513,474.8,513.6,474.3,514.1z"/>
	<path class="st0" d="M570,447.2c1,0,1.6,0.5,1.7,1.4l2.2,13.5h8.8v-22.2h-69.8v22.2h8.7l2.2-13.5c0.1-0.9,0.7-1.4,1.8-1.4h13.5
		v64.4c0,0.8-0.3,1.4-0.8,1.9c-0.5,0.5-1.2,0.7-2,0.8l-7,0.7v6.1h36.9v-6.1l-7.1-0.7c-0.7-0.1-1.3-0.3-1.9-0.8
		c-0.5-0.4-0.8-1.1-0.8-1.9v-64.4H570z"/>
	<path class="st0" d="M636.7,488.2c0-3.5-0.5-6.9-1.4-10.2c-0.9-3.3-2.4-6.3-4.5-8.8c-2.1-2.6-4.7-4.6-8-6.2
		c-3.3-1.6-7.3-2.3-12-2.3c-4.6,0-8.8,0.8-12.6,2.4c-3.8,1.6-7,3.8-9.6,6.6c-2.7,2.8-4.7,6.2-6.2,10c-1.4,3.9-2.1,8.1-2.1,12.7
		c0,4.2,0.6,8.2,1.9,11.8c1.3,3.7,3.2,6.9,5.8,9.6c2.6,2.7,5.8,4.9,9.6,6.5c3.8,1.6,8.3,2.4,13.5,2.4c3.9,0,7.3-0.4,10.4-1.1
		c3.1-0.7,5.8-1.5,8-2.5c2.6-1,4.9-2.2,7-3.6v-9.7c-1.8,1.3-3.8,2.4-6,3.4c-1.9,0.9-4.1,1.6-6.6,2.3c-2.5,0.7-5.4,1-8.4,1
		c-2.9,0-5.6-0.5-7.9-1.5c-2.3-1-4.3-2.4-5.9-4.3c-1.6-1.9-2.8-4.1-3.6-6.7c-0.8-2.6-1.2-5.6-1.2-8.9h39.7V488.2z M619.4,484.3
		h-21.8c0-1.9,0.2-3.8,0.6-5.8c0.4-2,1.1-3.7,2-5.4c0.9-1.6,2.1-2.9,3.7-3.9c1.5-1,3.4-1.5,5.6-1.5c1.8,0,3.3,0.4,4.6,1.1
		c1.3,0.7,2.3,1.7,3.1,3c0.8,1.2,1.4,2.7,1.7,4.4c0.4,1.7,0.5,3.5,0.5,5.4V484.3z"/>
	<path class="st0" d="M681.3,480.3c0,0.5-0.1,1-0.1,1.6v1.5c-5.6,1.2-10.3,2.4-14.3,3.5c-4,1.1-7.3,2.3-10.1,3.4
		c-2.7,1.1-4.9,2.3-6.6,3.5c-1.7,1.2-2.9,2.5-3.8,3.8c-0.9,1.3-1.5,2.7-1.8,4.3c-0.3,1.5-0.4,3.2-0.4,5c0,2.4,0.4,4.6,1.2,6.5
		c0.8,1.9,2,3.6,3.4,4.9c1.4,1.4,3.1,2.4,5,3.1c1.9,0.7,4,1.1,6.2,1.1c2.7,0,5.2-0.4,7.7-1.2c2.5-0.8,4.7-1.6,6.7-2.6
		c2.3-1.1,4.5-2.4,6.6-3.8l1.6,6h22.5v-5.7l-5.3-0.4c-0.7-0.1-1.4-0.4-1.9-0.9c-0.5-0.5-0.8-1.2-0.8-1.9v-31.1
		c0-4.4-0.6-7.9-1.7-10.6c-1.1-2.7-2.7-4.8-4.8-6.2c-2.1-1.5-4.5-2.5-7.4-3c-2.9-0.5-6-0.8-9.5-0.8c-3.2,0-6.4,0.3-9.6,1
		c-3.2,0.7-6.1,1.6-8.7,2.9c-2.6,1.2-4.7,2.7-6.3,4.5c-1.6,1.8-2.4,3.8-2.4,6c0,1.3,0.3,2.2,0.9,2.8c0.6,0.6,1.2,1,1.9,1.2
		c0.8,0.3,1.7,0.4,2.7,0.3h12.5v-11.5c0.4-0.1,0.8-0.2,1.3-0.2c0.4-0.1,1-0.1,1.6-0.2c0.7,0,1.4-0.1,2.2-0.1c2.4,0,4.4,0.4,5.9,1.1
		c1.5,0.7,2.7,1.7,3.5,2.8c0.8,1.1,1.4,2.3,1.6,3.7c0.3,1.3,0.4,2.5,0.4,3.7C681.4,479.2,681.3,479.7,681.3,480.3z M681.1,509.9
		c-1.1,0.5-2.3,1-3.6,1.4c-1.1,0.3-2.3,0.6-3.6,0.9c-1.3,0.3-2.6,0.4-3.9,0.4c-1.3,0-2.4-0.2-3.5-0.7c-1.1-0.5-2-1.1-2.8-1.9
		c-0.8-0.8-1.4-1.7-1.8-2.8c-0.4-1.1-0.6-2.3-0.6-3.5c0-1.8,0.3-3.4,0.9-4.8c0.6-1.4,1.6-2.6,3.1-3.6c1.5-1.1,3.5-2,6.1-2.8
		c2.5-0.8,5.8-1.6,9.6-2.4V509.9z"/>
	<path class="st0" d="M516.4,312.4c0,0-1.8-3.7-5.2-3.7c-3.4,0-5.2,4.6-5.2,4.6v26.4l10.4-0.5V312.4z"/>
	<path class="st0" d="M463.4,309.8c0,0-1.7-3.9-6.2-4.1c-4.5-0.2-6.2,3-6.2,3v33.7l12.5-0.6V309.8z"/>
	<path class="st0" d="M716.8,377.6H602.9c-0.1-1.1-0.3-2.2-0.5-3.4H220.2c-0.2,1.1-0.3,2.2-0.5,3.4H105.8v5.9h611V377.6z"/>
	<polygon class="st0" points="346.6,244.6 346.6,213.4 342.6,213.4 329,213.4 329,244.6 333.9,244.6 	"/>
	<path class="st0" d="M271.7,300.4L257.2,315l-1.6,45.4l-28,0.5c7.5-33.3,23.7-63,46-86.8L271.7,300.4z M282,359.5l-2.6,0l0.5-53.7
		l2.6,0L282,359.5z M411.3,214.2c58.7,0,111.6,26.9,146.3,69.6c-8.4-0.4-16.5-0.2-19.7-0.1l-111.5-15.1c-0.1,0-0.2,0-0.3,0
		l-28.3,0.8l-0.9-54.6C401.7,214.4,406.5,214.2,411.3,214.2z M340.3,114.8l1,1.8l0,15.7l-0.9-0.2V114.8z M317.1,118.2l1.2-0.3v-2.1
		l2.4,1.9v15.4l-3.6,0.6V118.2z M300.1,124.5l0-2.2l4.9,1.1v14.4l-5,2.6L300.1,124.5z M291.5,131.8h1.5v12.4l-1.7,1.4L291.5,131.8z
		 M346.6,147.4c0.8,0,1.5,0,2.3,0v-15.3l2.4,0v-13.6c0.6-0.2,1.2-0.6,1.4-1.3l9.2,2.8c0,0.1,0,0.1,0.1,0.2c0.2,0.5,0.7,0.9,1.2,1.1
		l0.7,0.2V135l9.6,2.5v-19.2l1.2-0.9c0.3-0.2,0.5-0.5,0.6-0.8c0.3,0.3,0.8,0.4,1.2,0.4l0.3,0c0.2,0,0.4,0,0.6,0v1.4
		c0,0.8,0.4,1.4,1.1,1.8l1.9,1l0.3,4.9c0,0.5,0.3,1,0.6,1.3v4.8c0,0.6,0.3,1.2,0.7,1.6c0.4,0.3,0.8,0.5,1.3,0.5v7.8
		c1.1,0.3,5.5,3.4,6.3,4l0-12.2c0.1,0.1,0.3,0.1,0.5,0.2l3.2,4.1v0.8c0,0.4,0.1,0.8,0.4,1.2l0.1,0.1v2.5c0,1.1,0.9,2,2,2h0.7
		l0.2,2.8c-0.1,0-0.1,0.1-0.2,0.1c-0.4,0.4-0.7,1-0.7,1.5l0.6,28.7l-3.8,7.4c-0.2,0.3-0.2,0.6-0.2,1l1.3,83.1l-21.3,0.6
		c-0.1,0-0.2,0-0.3,0.1l-0.4-0.1l-52.2,26l13.5-48.1h-7.3v-37.7h17.8l16.2-58.9c0,0-6.9-1.1-13.1-1.1c-30.9,0-62.7,17.1-63.4,19.8
		c0,0.3,0,0.6,0.1,0.9l3.3,9.1l-4.3,75.8c0,0,0,0.1,0,0.1l0,2.4l-1.9,2.3c-30.6,28.2-52.2,66.3-59.5,109.7h381
		c-3.7-22-11.1-42.6-21.4-61.3l-1.1-10.4c-12.1-3-30.4-3.7-43.9-3l5.9,59.3l-13.2,1.5l-105.3,1.5v-75.7l0.4,0l112.2,13.3
		c0.1,0-0.4-3.3-0.4-4.1l-111.4-13.4c-0.1,0-0.2,0-0.3,0l-0.5,0v-5.3l3.2-0.1l108.6,14.7l0.4,4.1c0,0,0.1,0,0.1,0
		c10.6-1,29.3-0.8,44.4,2.9l0.2-5.7c0-0.8-0.5-1.6-1.3-1.9c-3.1-1.3-8.5-2.1-14.4-2.6c-35.5-45.8-91-74.8-152.8-74.8
		c-4.8,0-9.6,0.2-14.4,0.5l-0.4-23l3.8-7.4c0.2-0.3,0.2-0.6,0.2-1l-0.5-27.4c0.1-0.1,0.2-0.2,0.3-0.3c0.4-0.4,0.7-1,0.6-1.6
		l-0.6-6.6c-0.1-1.1-1-1.9-2-1.9h-0.5v-1.1c0-0.4-0.1-0.8-0.4-1.2l-0.1-0.1v-0.8c0-0.4-0.1-0.9-0.4-1.2l-4.1-5.4
		c-0.2-0.2-0.4-0.4-0.7-0.6l-0.6-1.4c-0.3-0.8-1.1-1.3-1.9-1.3l-4.1,0.1v-1.3c0-0.6-0.3-1.1-0.7-1.5l-0.3-5c0-0.7-0.5-1.3-1.1-1.7
		l-1.9-1v-1.4c0-0.4-0.1-0.8-0.4-1.2c-0.7-1.1-1.8-1.4-2.8-1.6c-0.1-0.3-0.3-0.5-0.5-0.7c-1-1-3.1-1.2-5.2-0.5
		c-0.8,0.3-1.3,1.1-1.3,1.9v0.9l-2.8,2.1c-0.5,0.3-0.7,0.8-0.8,1.4l0,0.4l-1.6-0.6c0-0.1-0.1-0.2-0.1-0.2c-0.2-0.5-0.7-0.9-1.2-1
		l-12.8-4c-0.5-0.2-1.1-0.1-1.6,0.2s-0.8,0.7-1,1.2l-0.1,0.4l-6.8-0.1l-0.4-0.7c-0.4-0.7-1-1.1-1.8-1.1h-12.2c-1.1,0-2,0.9-2,2v0.3
		l-4.9,0.5l-1.5-1.3c-0.6-0.5-1.4-0.6-2.1-0.4l-10.9,4.2c-0.8,0.3-1.3,1.1-1.3,1.9v0.9l-0.6,0.3l-4.2-1c-0.6-0.2-1.3,0-1.8,0.5
		l-8,7.2c-0.6,0.6-0.9,1.5-0.5,2.3c0,0,0,0-0.1,0.1c-3.2,3-4.1,8-4.2,8.2c0,0.1,0,0.1,0,0.2l-2.3,27.8
		C297.7,156,325.1,147.4,346.6,147.4z M371,280.1l52.3-1.2l0,2.5l-52.3,1.2L371,280.1z M374.5,359.2l-3-57.5l2.6-0.1l3,57.5
		L374.5,359.2z M409.7,359.1h-18V326c0,0,2.9-3.8,9.3-3.8c6.4,0,8.7,4.4,8.7,4.4V359.1z M575.3,298.3
		C575.3,298.4,575.2,298.3,575.3,298.3L575.3,298.3z M553.6,355.3l-2.6-27.8c1.7-5.4,15.4-18.5,24.6-26l0,0.3l-0.6,7.4l3.7,44.7
		C573.5,355.1,564.3,355.9,553.6,355.3z"/>
	<rect x="105.8" y="542.5" class="st0" width="611" height="5.9"/>
	<rect x="105.8" y="401.2" class="st0" width="611" height="5.9"/>
</g>
</svg>
